# xmcd
#
# Track frame offsets:
#	150
#	12117
#	25355
#	37120
#	46405
#	57677
#	68157
#	77892
#	88015
#	97185
#	109535
#	121707
#	135897
#	146737
#	158292
#	170392
#	179305
#	193852
#	206620
#	217227
#
# Disc length: 3020 seconds
#
# Revision: 1
# Processed by: cddbd v1.5.2PL0 Copyright (c) Steve Scherf et al.
# Submitted via: audiograbber 1.83.01
#
DISCID=1b0bca14
DTITLE=Various Artist - Milestones - 20 Tracks Rock'n Roll (Vol1)
DYEAR=1995
DGENRE=Rock and Roll
TTITLE0=Danny and the Juniors - At the Hop
TTITLE1=Ad Lib - The Boy from New York City
TTITLE2=Chuby Checker - The Twist
TTITLE3=Joey Dee and the Starliters - Peppermint Twist
TTITLE4=Tony Sheridan and the Beatles - Let's dance
TTITLE5=Crystal - Da doo ron ron
TTITLE6=Little Richard - Good Golly Miss Molly
TTITLE7=Carl Perkins - Blue suede Shoes 
TTITLE8=Gene Vincent - Pistol packin' Mama
TTITLE9=Bill Haly and Comets - See you later Alligator (live)
TTITLE10=Fats Domino - Let the four Winds blow (live)
TTITLE11=Little Richard - The Girl can't help it
TTITLE12=Brook Benton - A rockin' good way
TTITLE13=Bobby Day - Rockin' robin
TTITLE14=Coasters - Poison Ivy
TTITLE15=Searchers - Love Poiton Number 9
TTITLE16=Fats Domino - I'm in Love again (live)
TTITLE17=Dave Baby Cortez - Rinky dink
TTITLE18=Johnny and the Hurricans - Reveille Rock
TTITLE19=Duane Eddy - Forty Miles of bad Road
EXTD=EAN: 7619929170522\n2128.2027.2
EXTT0=
EXTT1=
EXTT2=
EXTT3=
EXTT4=
EXTT5=
EXTT6=
EXTT7=
EXTT8=
EXTT9=
EXTT10=
EXTT11=
EXTT12=
EXTT13=
EXTT14=
EXTT15=
EXTT16=
EXTT17=
EXTT18=
EXTT19=
PLAYORDER=
